<svg width="335" height="119" viewBox="0 0 335 119" fill="none" xmlns="http://www.w3.org/2000/svg">
<mask id="path-1-outside-1_18_21" maskUnits="userSpaceOnUse" x="0" y="-0.00358582" width="335" height="119" fill="black">
<rect fill="white" y="-0.00358582" width="335" height="119"/>
<path d="M280.537 66.9841C281.683 62.0209 282.803 57.5168 283.897 53.4718L279.119 51.4546C279.075 49.8408 279.11 48.4378 279.225 47.2456C279.34 46.0534 279.548 44.8026 279.85 43.4933L280.153 42.6009C280.342 42.1957 280.469 41.8561 280.532 41.582L287.492 41.6494C288.08 39.7968 288.923 37.7462 290.019 35.4977C291.116 33.2492 292.098 31.6319 292.967 30.6459C294.11 30.1401 295.409 29.8626 296.864 29.8136C298.318 29.7645 299.837 29.9228 301.421 30.2883C302.76 30.5976 304.023 31.0334 305.208 31.5957C306.431 32.1345 307.465 32.726 308.31 33.3702C308.163 34.4266 307.934 35.6247 307.625 36.9644C307.119 39.1568 306.439 41.6138 305.586 44.3354L313.962 44.7297C314.639 46.9385 314.714 49.1848 314.186 51.4685C313.821 53.0518 313.293 54.4372 312.602 55.6247C311.941 56.8192 311.089 58.146 310.047 59.6052C307.96 59.4762 305.155 59.0531 301.632 58.3361C300.06 63.2008 297.433 70.2755 293.75 79.5599L293.163 81.0601L293.233 81.1726L304.736 80.3164C306.53 82.6869 307.224 85.862 306.819 89.8415C306.77 90.0546 305.548 90.831 303.154 92.1705C300.798 93.4867 297.967 94.565 294.662 95.4056C291.364 96.2157 287.979 96.2201 284.508 95.4187C278.449 94.0198 276.075 89.5751 277.387 82.0846C278.039 78.2901 279.089 73.2566 280.537 66.9841Z"/>
<path d="M242.207 73.1505C240.975 68.2081 239.928 63.6864 239.067 59.5855L233.894 59.9574C233.122 58.5396 232.516 57.2735 232.077 56.159C231.638 55.0446 231.256 53.8355 230.931 52.5316L230.795 51.5993C230.781 51.1521 230.739 50.7921 230.671 50.5192L236.903 47.4194C236.586 45.5017 236.406 43.2922 236.362 40.791C236.318 38.2899 236.459 36.4027 236.786 35.1296C237.575 34.16 238.606 33.3231 239.88 32.6191C241.154 31.915 242.579 31.3664 244.156 30.9733C245.49 30.6406 246.812 30.4558 248.124 30.4187C249.458 30.3438 250.647 30.4014 251.693 30.5915C252.041 31.5998 252.382 32.771 252.714 34.1051C253.259 36.2883 253.769 38.786 254.244 41.5982L261.886 38.1469C263.492 39.8077 264.579 41.7752 265.146 44.0494C265.539 45.6261 265.697 47.1004 265.62 48.4722C265.574 49.8364 265.418 51.4052 265.151 53.1786C263.233 54.0111 260.542 54.9075 257.078 55.8679C257.885 60.9162 258.756 68.4126 259.689 78.3571L259.848 79.9603L259.961 80.0285L269.822 74.0434C272.497 75.3411 274.556 77.8549 276.002 81.5848C276.055 81.7971 275.319 83.0434 273.794 85.3238C272.292 87.5663 270.259 89.8123 267.696 92.0617C265.125 94.2808 262.111 95.8212 258.655 96.6831C252.621 98.1875 248.488 95.3048 246.257 88.0349C245.115 84.3583 243.765 79.3968 242.207 73.1505Z"/>
<path d="M180.705 65.7913C180.705 59.5827 181.693 54.1974 183.671 49.6353C185.648 45.0732 188.682 41.5401 192.773 39.0361C196.864 36.4978 201.995 35.2287 208.165 35.2287C214.983 35.2287 220.336 36.515 224.222 39.0876C228.108 41.6259 230.818 45.159 232.353 49.6868C233.921 54.2146 234.705 59.7542 234.705 66.3058C234.705 72.24 233.665 77.5396 231.586 82.2046C229.54 86.8353 226.438 90.5056 222.279 93.2154C218.154 95.8909 213.091 97.2287 207.091 97.2287C197.818 97.2287 191.103 94.3645 186.943 88.6361C182.784 82.8735 180.705 75.2585 180.705 65.7913ZM209.188 82.1531C210.926 82.1531 211.983 82.0159 212.358 81.7415C213.142 80.3695 213.739 78.4314 214.148 75.9274C214.557 73.4234 214.762 70.7136 214.762 67.798C214.762 65.1224 214.591 62.6184 214.25 60.2859C213.909 57.9191 213.432 56.0668 212.818 54.7291C212.443 54.2832 211.693 53.9573 210.568 53.7515C209.443 53.5114 208.216 53.3913 206.887 53.3913C205.148 53.3913 203.955 53.58 203.307 53.9573C201.603 56.9072 200.75 61.0063 200.75 66.2544C200.75 68.7241 200.938 71.2453 201.313 73.8179C201.688 76.3905 202.165 78.723 202.745 80.8154C203.154 81.2613 203.989 81.6043 205.25 81.8444C206.512 82.0502 207.824 82.1531 209.188 82.1531Z"/>
<path d="M144.698 31.2103C144.267 28.4941 144.798 26.148 146.288 24.1717C147.809 22.1906 150.514 20.8921 154.403 20.2761C158.292 19.6601 161.251 20.0616 163.279 21.4806C165.338 22.8946 166.583 24.9597 167.013 27.6759C167.258 29.2191 166.942 30.7245 166.067 32.1919C165.223 33.6545 163.998 34.9084 162.392 35.9538C160.781 36.9684 159.049 37.6223 157.197 37.9156C155.191 38.2333 153.255 38.097 151.39 37.5065C149.551 36.8803 148.017 35.9842 146.788 34.8184C145.59 33.6476 144.893 32.4449 144.698 31.2103ZM146.623 58.052C145.983 56.6032 145.487 55.2736 145.137 54.0635C144.783 52.8224 144.498 51.5229 144.283 50.1648L144.124 48.8611C144.64 47.9251 145.511 46.9329 146.737 45.8844C147.989 44.8002 149.479 43.8207 151.207 42.9458C152.966 42.066 154.834 41.4697 156.809 41.1569C161.13 40.4725 164.355 40.9583 166.484 42.6144C168.613 44.2705 170.003 47.1511 170.653 51.2561C171.044 53.7254 171.2 57.007 171.121 61.1011C171.072 65.1902 170.852 69.1958 170.461 73.1178C170.096 77.004 169.685 79.8059 169.23 81.5233L169.337 81.6012L175.793 78.0159C177.194 78.8698 178.303 79.8806 179.121 81.0483C179.969 82.2111 180.618 83.6112 181.068 85.2486C181.102 85.4646 180.565 86.4673 179.456 88.2565C178.342 90.0149 176.766 91.7515 174.728 93.4664C172.716 95.1456 170.244 96.2174 167.312 96.6818C164.349 97.1511 161.814 96.73 159.708 95.4183C157.633 94.1017 156.287 91.4989 155.671 87.6099C154.953 83.0727 154.313 78.2382 153.754 73.1063C153.194 67.9744 152.798 62.9749 152.565 58.1076L146.623 58.052Z"/>
<path d="M115.438 33.5204C115.171 31.5755 115.026 29.9734 115.001 28.7139C114.979 27.4234 115.071 25.9561 115.275 24.3122C116.016 23.5417 117.114 22.8087 118.57 22.1133C120.06 21.3901 121.753 20.8296 123.648 20.4318C125.575 20.0373 127.533 19.9446 129.522 20.1537C133.407 20.562 136.288 21.8545 138.164 24.0314C140.041 26.2082 140.778 29.2079 140.376 33.0306C140.089 35.7656 139.393 40.1387 138.29 46.1501C137.187 52.1615 135.841 58.5401 134.252 65.286C132.667 72.0008 131.047 77.8478 129.392 82.8271L129.476 82.9302L136.679 80.765C138.884 83.1021 140.008 86.0167 140.049 89.5089C140.026 89.7265 139.232 90.5543 137.667 91.9923C136.105 93.3993 134.102 94.6656 131.659 95.7913C129.25 96.8893 126.569 97.2831 123.616 96.9728C120.539 96.6494 118.127 95.5318 116.38 93.6199C114.664 91.7113 114.07 88.6952 114.598 84.5715L115.573 76.19C116.44 68.2371 117.271 61.0816 118.065 54.7235C118.89 48.3687 119.891 41.8282 121.07 35.102L115.438 33.5204Z"/>
<path d="M82.5322 33.5203C82.2652 31.5755 82.1194 29.9734 82.0947 28.7139C82.0732 27.4233 82.1646 25.9561 82.3688 24.3122C83.1096 23.5417 84.2079 22.8087 85.6636 22.1133C87.1536 21.3901 88.8464 20.8296 90.7421 20.4318C92.6689 20.0373 94.6269 19.9446 96.6159 20.1536C100.501 20.562 103.381 21.8545 105.258 24.0313C107.134 26.2082 107.872 29.2079 107.47 33.0306C107.183 35.7656 106.487 40.1387 105.384 46.1501C104.281 52.1614 102.935 58.5401 101.346 65.2859C99.7605 72.0007 98.1404 77.8478 96.4859 82.8271L96.5693 82.9302L103.773 80.765C105.978 83.1021 107.101 86.0167 107.143 89.5089C107.12 89.7265 106.326 90.5543 104.761 91.9923C103.199 93.3992 101.196 94.6656 98.7526 95.7913C96.3433 96.8893 93.6625 97.2831 90.71 96.9728C87.6332 96.6494 85.2212 95.5318 83.474 93.6199C81.7578 91.7113 81.1636 88.6952 81.6913 84.5715L82.6665 76.19C83.5338 68.2371 84.3644 61.0816 85.1583 54.7235C85.9834 48.3687 86.985 41.8282 88.1633 35.102L82.5322 33.5203Z"/>
<path d="M25.3363 86.9598C25.0939 84.1891 25.4342 81.4459 26.3573 78.7301C26.8865 78.6838 27.721 78.7206 28.8608 78.8405C30.029 78.9265 31.2493 79.0707 32.5218 79.273C31.5997 70.884 30.903 63.9966 30.4318 58.6109C29.8462 51.9178 29.471 46.1943 29.306 41.4406L22.0289 41.0891C21.5235 39.9727 21.1019 38.7391 20.7641 37.3884C20.4236 36.0066 20.1962 34.6619 20.0818 33.3544C19.9946 32.3582 19.9771 31.2618 20.0293 30.0652C23.6113 28.3402 28.3948 26.9022 34.3798 25.7512C40.3931 24.5663 46.4818 23.7043 52.6458 23.165C58.4673 22.6557 62.7087 22.5512 65.37 22.8517C67.141 23.7319 68.6954 24.6468 70.0332 25.5963C71.3995 26.512 72.7252 27.6821 74.0106 29.1068C74.2012 31.286 74.1903 33.671 73.9778 36.2619C73.7937 38.8189 73.4207 41.1885 72.8587 43.3708C72.3279 45.5504 71.6831 47.1439 70.9243 48.1514C70.2382 48.5564 69.4675 48.8905 68.6122 49.1536C67.7541 49.3855 66.6869 49.5573 65.4106 49.6689C64.2898 49.767 63.3166 49.758 62.4909 49.6421C61.6935 49.4922 60.9191 49.2463 60.1677 48.9042L57.6894 38.8633C55.7009 38.7235 53.3525 38.7722 50.6441 39.0091C49.8969 39.0745 49.1538 39.1865 48.4149 39.3453C48.6853 43.8702 48.585 50.0744 48.1141 57.958C54.9244 56.2015 60.7502 54.8448 65.5915 53.888C67.0028 55.678 67.8284 57.9428 68.0681 60.6824C68.226 62.488 68.1295 64.2531 67.7785 65.9777C67.4275 67.7024 66.9848 68.9175 66.4505 69.623C65.1621 69.9553 63.615 70.2004 61.8094 70.3584C59.4746 70.5627 57.0287 70.5728 54.4717 70.3887C51.9458 70.2019 49.5592 69.8146 47.3119 69.227L47.0521 73.2493C46.8719 75.4923 46.7357 77.7001 46.6434 79.8727L76.0513 75.5588C76.5563 75.9538 77.0217 76.7914 77.4475 78.0717C77.9043 79.3492 78.2008 80.7663 78.337 82.3228C78.5549 84.8133 78.2474 87.0361 77.4146 88.9911C76.5819 90.9461 75.3854 92.5095 73.8254 93.6811C72.2937 94.819 70.5939 95.4696 68.7261 95.633C66.8582 95.7964 64.2701 95.615 60.9616 95.0889C57.6816 94.5289 54.4617 93.7597 51.3019 92.7814C48.1732 91.8003 45.8425 90.7965 44.3097 89.77C43.0955 92.3857 41.6896 94.4223 40.0917 95.8796C38.5251 97.3342 36.4112 98.272 33.7503 98.693C32.3926 98.5922 31.103 98.0149 29.8815 96.9611C28.66 95.9073 27.6434 94.5062 26.8317 92.7578C26.02 91.0094 25.5215 89.0767 25.3363 86.9598Z"/>
</mask>
<path d="M280.537 66.9841C281.683 62.0209 282.803 57.5168 283.897 53.4718L279.119 51.4546C279.075 49.8408 279.11 48.4378 279.225 47.2456C279.34 46.0534 279.548 44.8026 279.85 43.4933L280.153 42.6009C280.342 42.1957 280.469 41.8561 280.532 41.582L287.492 41.6494C288.08 39.7968 288.923 37.7462 290.019 35.4977C291.116 33.2492 292.098 31.6319 292.967 30.6459C294.11 30.1401 295.409 29.8626 296.864 29.8136C298.318 29.7645 299.837 29.9228 301.421 30.2883C302.76 30.5976 304.023 31.0334 305.208 31.5957C306.431 32.1345 307.465 32.726 308.31 33.3702C308.163 34.4266 307.934 35.6247 307.625 36.9644C307.119 39.1568 306.439 41.6138 305.586 44.3354L313.962 44.7297C314.639 46.9385 314.714 49.1848 314.186 51.4685C313.821 53.0518 313.293 54.4372 312.602 55.6247C311.941 56.8192 311.089 58.146 310.047 59.6052C307.96 59.4762 305.155 59.0531 301.632 58.3361C300.06 63.2008 297.433 70.2755 293.75 79.5599L293.163 81.0601L293.233 81.1726L304.736 80.3164C306.53 82.6869 307.224 85.862 306.819 89.8415C306.77 90.0546 305.548 90.831 303.154 92.1705C300.798 93.4867 297.967 94.565 294.662 95.4056C291.364 96.2157 287.979 96.2201 284.508 95.4187C278.449 94.0198 276.075 89.5751 277.387 82.0846C278.039 78.2901 279.089 73.2566 280.537 66.9841Z" fill="#EC3434"/>
<path d="M242.207 73.1505C240.975 68.2081 239.928 63.6864 239.067 59.5855L233.894 59.9574C233.122 58.5396 232.516 57.2735 232.077 56.159C231.638 55.0446 231.256 53.8355 230.931 52.5316L230.795 51.5993C230.781 51.1521 230.739 50.7921 230.671 50.5192L236.903 47.4194C236.586 45.5017 236.406 43.2922 236.362 40.791C236.318 38.2899 236.459 36.4027 236.786 35.1296C237.575 34.16 238.606 33.3231 239.88 32.6191C241.154 31.915 242.579 31.3664 244.156 30.9733C245.49 30.6406 246.812 30.4558 248.124 30.4187C249.458 30.3438 250.647 30.4014 251.693 30.5915C252.041 31.5998 252.382 32.771 252.714 34.1051C253.259 36.2883 253.769 38.786 254.244 41.5982L261.886 38.1469C263.492 39.8077 264.579 41.7752 265.146 44.0494C265.539 45.6261 265.697 47.1004 265.62 48.4722C265.574 49.8364 265.418 51.4052 265.151 53.1786C263.233 54.0111 260.542 54.9075 257.078 55.8679C257.885 60.9162 258.756 68.4126 259.689 78.3571L259.848 79.9603L259.961 80.0285L269.822 74.0434C272.497 75.3411 274.556 77.8549 276.002 81.5848C276.055 81.7971 275.319 83.0434 273.794 85.3238C272.292 87.5663 270.259 89.8123 267.696 92.0617C265.125 94.2808 262.111 95.8212 258.655 96.6831C252.621 98.1875 248.488 95.3048 246.257 88.0349C245.115 84.3583 243.765 79.3968 242.207 73.1505Z" fill="#EC3434"/>
<path d="M180.705 65.7913C180.705 59.5827 181.693 54.1974 183.671 49.6353C185.648 45.0732 188.682 41.5401 192.773 39.0361C196.864 36.4978 201.995 35.2287 208.165 35.2287C214.983 35.2287 220.336 36.515 224.222 39.0876C228.108 41.6259 230.818 45.159 232.353 49.6868C233.921 54.2146 234.705 59.7542 234.705 66.3058C234.705 72.24 233.665 77.5396 231.586 82.2046C229.54 86.8353 226.438 90.5056 222.279 93.2154C218.154 95.8909 213.091 97.2287 207.091 97.2287C197.818 97.2287 191.103 94.3645 186.943 88.6361C182.784 82.8735 180.705 75.2585 180.705 65.7913ZM209.188 82.1531C210.926 82.1531 211.983 82.0159 212.358 81.7415C213.142 80.3695 213.739 78.4314 214.148 75.9274C214.557 73.4234 214.762 70.7136 214.762 67.798C214.762 65.1224 214.591 62.6184 214.25 60.2859C213.909 57.9191 213.432 56.0668 212.818 54.7291C212.443 54.2832 211.693 53.9573 210.568 53.7515C209.443 53.5114 208.216 53.3913 206.887 53.3913C205.148 53.3913 203.955 53.58 203.307 53.9573C201.603 56.9072 200.75 61.0063 200.75 66.2544C200.75 68.7241 200.938 71.2453 201.313 73.8179C201.688 76.3905 202.165 78.723 202.745 80.8154C203.154 81.2613 203.989 81.6043 205.25 81.8444C206.512 82.0502 207.824 82.1531 209.188 82.1531Z" fill="#EC3434"/>
<path d="M144.698 31.2103C144.267 28.4941 144.798 26.148 146.288 24.1717C147.809 22.1906 150.514 20.8921 154.403 20.2761C158.292 19.6601 161.251 20.0616 163.279 21.4806C165.338 22.8946 166.583 24.9597 167.013 27.6759C167.258 29.2191 166.942 30.7245 166.067 32.1919C165.223 33.6545 163.998 34.9084 162.392 35.9538C160.781 36.9684 159.049 37.6223 157.197 37.9156C155.191 38.2333 153.255 38.097 151.39 37.5065C149.551 36.8803 148.017 35.9842 146.788 34.8184C145.59 33.6476 144.893 32.4449 144.698 31.2103ZM146.623 58.052C145.983 56.6032 145.487 55.2736 145.137 54.0635C144.783 52.8224 144.498 51.5229 144.283 50.1648L144.124 48.8611C144.64 47.9251 145.511 46.9329 146.737 45.8844C147.989 44.8002 149.479 43.8207 151.207 42.9458C152.966 42.066 154.834 41.4697 156.809 41.1569C161.13 40.4725 164.355 40.9583 166.484 42.6144C168.613 44.2705 170.003 47.1511 170.653 51.2561C171.044 53.7254 171.2 57.007 171.121 61.1011C171.072 65.1902 170.852 69.1958 170.461 73.1178C170.096 77.004 169.685 79.8059 169.23 81.5233L169.337 81.6012L175.793 78.0159C177.194 78.8698 178.303 79.8806 179.121 81.0483C179.969 82.2111 180.618 83.6112 181.068 85.2486C181.102 85.4646 180.565 86.4673 179.456 88.2565C178.342 90.0149 176.766 91.7515 174.728 93.4664C172.716 95.1456 170.244 96.2174 167.312 96.6818C164.349 97.1511 161.814 96.73 159.708 95.4183C157.633 94.1017 156.287 91.4989 155.671 87.6099C154.953 83.0727 154.313 78.2382 153.754 73.1063C153.194 67.9744 152.798 62.9749 152.565 58.1076L146.623 58.052Z" fill="#EC3434"/>
<path d="M115.438 33.5204C115.171 31.5755 115.026 29.9734 115.001 28.7139C114.979 27.4234 115.071 25.9561 115.275 24.3122C116.016 23.5417 117.114 22.8087 118.57 22.1133C120.06 21.3901 121.753 20.8296 123.648 20.4318C125.575 20.0373 127.533 19.9446 129.522 20.1537C133.407 20.562 136.288 21.8545 138.164 24.0314C140.041 26.2082 140.778 29.2079 140.376 33.0306C140.089 35.7656 139.393 40.1387 138.29 46.1501C137.187 52.1615 135.841 58.5401 134.252 65.286C132.667 72.0008 131.047 77.8478 129.392 82.8271L129.476 82.9302L136.679 80.765C138.884 83.1021 140.008 86.0167 140.049 89.5089C140.026 89.7265 139.232 90.5543 137.667 91.9923C136.105 93.3993 134.102 94.6656 131.659 95.7913C129.25 96.8893 126.569 97.2831 123.616 96.9728C120.539 96.6494 118.127 95.5318 116.38 93.6199C114.664 91.7113 114.07 88.6952 114.598 84.5715L115.573 76.19C116.44 68.2371 117.271 61.0816 118.065 54.7235C118.89 48.3687 119.891 41.8282 121.07 35.102L115.438 33.5204Z" fill="#EC3434"/>
<path d="M82.5322 33.5203C82.2652 31.5755 82.1194 29.9734 82.0947 28.7139C82.0732 27.4233 82.1646 25.9561 82.3688 24.3122C83.1096 23.5417 84.2079 22.8087 85.6636 22.1133C87.1536 21.3901 88.8464 20.8296 90.7421 20.4318C92.6689 20.0373 94.6269 19.9446 96.6159 20.1536C100.501 20.562 103.381 21.8545 105.258 24.0313C107.134 26.2082 107.872 29.2079 107.47 33.0306C107.183 35.7656 106.487 40.1387 105.384 46.1501C104.281 52.1614 102.935 58.5401 101.346 65.2859C99.7605 72.0007 98.1404 77.8478 96.4859 82.8271L96.5693 82.9302L103.773 80.765C105.978 83.1021 107.101 86.0167 107.143 89.5089C107.12 89.7265 106.326 90.5543 104.761 91.9923C103.199 93.3992 101.196 94.6656 98.7526 95.7913C96.3433 96.8893 93.6625 97.2831 90.71 96.9728C87.6332 96.6494 85.2212 95.5318 83.474 93.6199C81.7578 91.7113 81.1636 88.6952 81.6913 84.5715L82.6665 76.19C83.5338 68.2371 84.3644 61.0816 85.1583 54.7235C85.9834 48.3687 86.985 41.8282 88.1633 35.102L82.5322 33.5203Z" fill="#EC3434"/>
<path d="M25.3363 86.9598C25.0939 84.1891 25.4342 81.4459 26.3573 78.7301C26.8865 78.6838 27.721 78.7206 28.8608 78.8405C30.029 78.9265 31.2493 79.0707 32.5218 79.273C31.5997 70.884 30.903 63.9966 30.4318 58.6109C29.8462 51.9178 29.471 46.1943 29.306 41.4406L22.0289 41.0891C21.5235 39.9727 21.1019 38.7391 20.7641 37.3884C20.4236 36.0066 20.1962 34.6619 20.0818 33.3544C19.9946 32.3582 19.9771 31.2618 20.0293 30.0652C23.6113 28.3402 28.3948 26.9022 34.3798 25.7512C40.3931 24.5663 46.4818 23.7043 52.6458 23.165C58.4673 22.6557 62.7087 22.5512 65.37 22.8517C67.141 23.7319 68.6954 24.6468 70.0332 25.5963C71.3995 26.512 72.7252 27.6821 74.0106 29.1068C74.2012 31.286 74.1903 33.671 73.9778 36.2619C73.7937 38.8189 73.4207 41.1885 72.8587 43.3708C72.3279 45.5504 71.6831 47.1439 70.9243 48.1514C70.2382 48.5564 69.4675 48.8905 68.6122 49.1536C67.7541 49.3855 66.6869 49.5573 65.4106 49.6689C64.2898 49.767 63.3166 49.758 62.4909 49.6421C61.6935 49.4922 60.9191 49.2463 60.1677 48.9042L57.6894 38.8633C55.7009 38.7235 53.3525 38.7722 50.6441 39.0091C49.8969 39.0745 49.1538 39.1865 48.4149 39.3453C48.6853 43.8702 48.585 50.0744 48.1141 57.958C54.9244 56.2015 60.7502 54.8448 65.5915 53.888C67.0028 55.678 67.8284 57.9428 68.0681 60.6824C68.226 62.488 68.1295 64.2531 67.7785 65.9777C67.4275 67.7024 66.9848 68.9175 66.4505 69.623C65.1621 69.9553 63.615 70.2004 61.8094 70.3584C59.4746 70.5627 57.0287 70.5728 54.4717 70.3887C51.9458 70.2019 49.5592 69.8146 47.3119 69.227L47.0521 73.2493C46.8719 75.4923 46.7357 77.7001 46.6434 79.8727L76.0513 75.5588C76.5563 75.9538 77.0217 76.7914 77.4475 78.0717C77.9043 79.3492 78.2008 80.7663 78.337 82.3228C78.5549 84.8133 78.2474 87.0361 77.4146 88.9911C76.5819 90.9461 75.3854 92.5095 73.8254 93.6811C72.2937 94.819 70.5939 95.4696 68.7261 95.633C66.8582 95.7964 64.2701 95.615 60.9616 95.0889C57.6816 94.5289 54.4617 93.7597 51.3019 92.7814C48.1732 91.8003 45.8425 90.7965 44.3097 89.77C43.0955 92.3857 41.6896 94.4223 40.0917 95.8796C38.5251 97.3342 36.4112 98.272 33.7503 98.693C32.3926 98.5922 31.103 98.0149 29.8815 96.9611C28.66 95.9073 27.6434 94.5062 26.8317 92.7578C26.02 91.0094 25.5215 89.0767 25.3363 86.9598Z" fill="#EC3434"/>
<path d="M280.537 66.9841C281.683 62.0209 282.803 57.5168 283.897 53.4718L279.119 51.4546C279.075 49.8408 279.11 48.4378 279.225 47.2456C279.34 46.0534 279.548 44.8026 279.85 43.4933L280.153 42.6009C280.342 42.1957 280.469 41.8561 280.532 41.582L287.492 41.6494C288.08 39.7968 288.923 37.7462 290.019 35.4977C291.116 33.2492 292.098 31.6319 292.967 30.6459C294.11 30.1401 295.409 29.8626 296.864 29.8136C298.318 29.7645 299.837 29.9228 301.421 30.2883C302.76 30.5976 304.023 31.0334 305.208 31.5957C306.431 32.1345 307.465 32.726 308.31 33.3702C308.163 34.4266 307.934 35.6247 307.625 36.9644C307.119 39.1568 306.439 41.6138 305.586 44.3354L313.962 44.7297C314.639 46.9385 314.714 49.1848 314.186 51.4685C313.821 53.0518 313.293 54.4372 312.602 55.6247C311.941 56.8192 311.089 58.146 310.047 59.6052C307.96 59.4762 305.155 59.0531 301.632 58.3361C300.06 63.2008 297.433 70.2755 293.75 79.5599L293.163 81.0601L293.233 81.1726L304.736 80.3164C306.53 82.6869 307.224 85.862 306.819 89.8415C306.77 90.0546 305.548 90.831 303.154 92.1705C300.798 93.4867 297.967 94.565 294.662 95.4056C291.364 96.2157 287.979 96.2201 284.508 95.4187C278.449 94.0198 276.075 89.5751 277.387 82.0846C278.039 78.2901 279.089 73.2566 280.537 66.9841Z" stroke="#0C0000" stroke-width="40" mask="url(#path-1-outside-1_18_21)"/>
<path d="M242.207 73.1505C240.975 68.2081 239.928 63.6864 239.067 59.5855L233.894 59.9574C233.122 58.5396 232.516 57.2735 232.077 56.159C231.638 55.0446 231.256 53.8355 230.931 52.5316L230.795 51.5993C230.781 51.1521 230.739 50.7921 230.671 50.5192L236.903 47.4194C236.586 45.5017 236.406 43.2922 236.362 40.791C236.318 38.2899 236.459 36.4027 236.786 35.1296C237.575 34.16 238.606 33.3231 239.88 32.6191C241.154 31.915 242.579 31.3664 244.156 30.9733C245.49 30.6406 246.812 30.4558 248.124 30.4187C249.458 30.3438 250.647 30.4014 251.693 30.5915C252.041 31.5998 252.382 32.771 252.714 34.1051C253.259 36.2883 253.769 38.786 254.244 41.5982L261.886 38.1469C263.492 39.8077 264.579 41.7752 265.146 44.0494C265.539 45.6261 265.697 47.1004 265.62 48.4722C265.574 49.8364 265.418 51.4052 265.151 53.1786C263.233 54.0111 260.542 54.9075 257.078 55.8679C257.885 60.9162 258.756 68.4126 259.689 78.3571L259.848 79.9603L259.961 80.0285L269.822 74.0434C272.497 75.3411 274.556 77.8549 276.002 81.5848C276.055 81.7971 275.319 83.0434 273.794 85.3238C272.292 87.5663 270.259 89.8123 267.696 92.0617C265.125 94.2808 262.111 95.8212 258.655 96.6831C252.621 98.1875 248.488 95.3048 246.257 88.0349C245.115 84.3583 243.765 79.3968 242.207 73.1505Z" stroke="#0C0000" stroke-width="40" mask="url(#path-1-outside-1_18_21)"/>
<path d="M180.705 65.7913C180.705 59.5827 181.693 54.1974 183.671 49.6353C185.648 45.0732 188.682 41.5401 192.773 39.0361C196.864 36.4978 201.995 35.2287 208.165 35.2287C214.983 35.2287 220.336 36.515 224.222 39.0876C228.108 41.6259 230.818 45.159 232.353 49.6868C233.921 54.2146 234.705 59.7542 234.705 66.3058C234.705 72.24 233.665 77.5396 231.586 82.2046C229.54 86.8353 226.438 90.5056 222.279 93.2154C218.154 95.8909 213.091 97.2287 207.091 97.2287C197.818 97.2287 191.103 94.3645 186.943 88.6361C182.784 82.8735 180.705 75.2585 180.705 65.7913ZM209.188 82.1531C210.926 82.1531 211.983 82.0159 212.358 81.7415C213.142 80.3695 213.739 78.4314 214.148 75.9274C214.557 73.4234 214.762 70.7136 214.762 67.798C214.762 65.1224 214.591 62.6184 214.25 60.2859C213.909 57.9191 213.432 56.0668 212.818 54.7291C212.443 54.2832 211.693 53.9573 210.568 53.7515C209.443 53.5114 208.216 53.3913 206.887 53.3913C205.148 53.3913 203.955 53.58 203.307 53.9573C201.603 56.9072 200.75 61.0063 200.75 66.2544C200.75 68.7241 200.938 71.2453 201.313 73.8179C201.688 76.3905 202.165 78.723 202.745 80.8154C203.154 81.2613 203.989 81.6043 205.25 81.8444C206.512 82.0502 207.824 82.1531 209.188 82.1531Z" stroke="#0C0000" stroke-width="40" mask="url(#path-1-outside-1_18_21)"/>
<path d="M144.698 31.2103C144.267 28.4941 144.798 26.148 146.288 24.1717C147.809 22.1906 150.514 20.8921 154.403 20.2761C158.292 19.6601 161.251 20.0616 163.279 21.4806C165.338 22.8946 166.583 24.9597 167.013 27.6759C167.258 29.2191 166.942 30.7245 166.067 32.1919C165.223 33.6545 163.998 34.9084 162.392 35.9538C160.781 36.9684 159.049 37.6223 157.197 37.9156C155.191 38.2333 153.255 38.097 151.39 37.5065C149.551 36.8803 148.017 35.9842 146.788 34.8184C145.59 33.6476 144.893 32.4449 144.698 31.2103ZM146.623 58.052C145.983 56.6032 145.487 55.2736 145.137 54.0635C144.783 52.8224 144.498 51.5229 144.283 50.1648L144.124 48.8611C144.64 47.9251 145.511 46.9329 146.737 45.8844C147.989 44.8002 149.479 43.8207 151.207 42.9458C152.966 42.066 154.834 41.4697 156.809 41.1569C161.13 40.4725 164.355 40.9583 166.484 42.6144C168.613 44.2705 170.003 47.1511 170.653 51.2561C171.044 53.7254 171.2 57.007 171.121 61.1011C171.072 65.1902 170.852 69.1958 170.461 73.1178C170.096 77.004 169.685 79.8059 169.23 81.5233L169.337 81.6012L175.793 78.0159C177.194 78.8698 178.303 79.8806 179.121 81.0483C179.969 82.2111 180.618 83.6112 181.068 85.2486C181.102 85.4646 180.565 86.4673 179.456 88.2565C178.342 90.0149 176.766 91.7515 174.728 93.4664C172.716 95.1456 170.244 96.2174 167.312 96.6818C164.349 97.1511 161.814 96.73 159.708 95.4183C157.633 94.1017 156.287 91.4989 155.671 87.6099C154.953 83.0727 154.313 78.2382 153.754 73.1063C153.194 67.9744 152.798 62.9749 152.565 58.1076L146.623 58.052Z" stroke="#0C0000" stroke-width="40" mask="url(#path-1-outside-1_18_21)"/>
<path d="M115.438 33.5204C115.171 31.5755 115.026 29.9734 115.001 28.7139C114.979 27.4234 115.071 25.9561 115.275 24.3122C116.016 23.5417 117.114 22.8087 118.57 22.1133C120.06 21.3901 121.753 20.8296 123.648 20.4318C125.575 20.0373 127.533 19.9446 129.522 20.1537C133.407 20.562 136.288 21.8545 138.164 24.0314C140.041 26.2082 140.778 29.2079 140.376 33.0306C140.089 35.7656 139.393 40.1387 138.29 46.1501C137.187 52.1615 135.841 58.5401 134.252 65.286C132.667 72.0008 131.047 77.8478 129.392 82.8271L129.476 82.9302L136.679 80.765C138.884 83.1021 140.008 86.0167 140.049 89.5089C140.026 89.7265 139.232 90.5543 137.667 91.9923C136.105 93.3993 134.102 94.6656 131.659 95.7913C129.25 96.8893 126.569 97.2831 123.616 96.9728C120.539 96.6494 118.127 95.5318 116.38 93.6199C114.664 91.7113 114.07 88.6952 114.598 84.5715L115.573 76.19C116.44 68.2371 117.271 61.0816 118.065 54.7235C118.89 48.3687 119.891 41.8282 121.07 35.102L115.438 33.5204Z" stroke="#0C0000" stroke-width="40" mask="url(#path-1-outside-1_18_21)"/>
<path d="M82.5322 33.5203C82.2652 31.5755 82.1194 29.9734 82.0947 28.7139C82.0732 27.4233 82.1646 25.9561 82.3688 24.3122C83.1096 23.5417 84.2079 22.8087 85.6636 22.1133C87.1536 21.3901 88.8464 20.8296 90.7421 20.4318C92.6689 20.0373 94.6269 19.9446 96.6159 20.1536C100.501 20.562 103.381 21.8545 105.258 24.0313C107.134 26.2082 107.872 29.2079 107.47 33.0306C107.183 35.7656 106.487 40.1387 105.384 46.1501C104.281 52.1614 102.935 58.5401 101.346 65.2859C99.7605 72.0007 98.1404 77.8478 96.4859 82.8271L96.5693 82.9302L103.773 80.765C105.978 83.1021 107.101 86.0167 107.143 89.5089C107.12 89.7265 106.326 90.5543 104.761 91.9923C103.199 93.3992 101.196 94.6656 98.7526 95.7913C96.3433 96.8893 93.6625 97.2831 90.71 96.9728C87.6332 96.6494 85.2212 95.5318 83.474 93.6199C81.7578 91.7113 81.1636 88.6952 81.6913 84.5715L82.6665 76.19C83.5338 68.2371 84.3644 61.0816 85.1583 54.7235C85.9834 48.3687 86.985 41.8282 88.1633 35.102L82.5322 33.5203Z" stroke="#0C0000" stroke-width="40" mask="url(#path-1-outside-1_18_21)"/>
<path d="M25.3363 86.9598C25.0939 84.1891 25.4342 81.4459 26.3573 78.7301C26.8865 78.6838 27.721 78.7206 28.8608 78.8405C30.029 78.9265 31.2493 79.0707 32.5218 79.273C31.5997 70.884 30.903 63.9966 30.4318 58.6109C29.8462 51.9178 29.471 46.1943 29.306 41.4406L22.0289 41.0891C21.5235 39.9727 21.1019 38.7391 20.7641 37.3884C20.4236 36.0066 20.1962 34.6619 20.0818 33.3544C19.9946 32.3582 19.9771 31.2618 20.0293 30.0652C23.6113 28.3402 28.3948 26.9022 34.3798 25.7512C40.3931 24.5663 46.4818 23.7043 52.6458 23.165C58.4673 22.6557 62.7087 22.5512 65.37 22.8517C67.141 23.7319 68.6954 24.6468 70.0332 25.5963C71.3995 26.512 72.7252 27.6821 74.0106 29.1068C74.2012 31.286 74.1903 33.671 73.9778 36.2619C73.7937 38.8189 73.4207 41.1885 72.8587 43.3708C72.3279 45.5504 71.6831 47.1439 70.9243 48.1514C70.2382 48.5564 69.4675 48.8905 68.6122 49.1536C67.7541 49.3855 66.6869 49.5573 65.4106 49.6689C64.2898 49.767 63.3166 49.758 62.4909 49.6421C61.6935 49.4922 60.9191 49.2463 60.1677 48.9042L57.6894 38.8633C55.7009 38.7235 53.3525 38.7722 50.6441 39.0091C49.8969 39.0745 49.1538 39.1865 48.4149 39.3453C48.6853 43.8702 48.585 50.0744 48.1141 57.958C54.9244 56.2015 60.7502 54.8448 65.5915 53.888C67.0028 55.678 67.8284 57.9428 68.0681 60.6824C68.226 62.488 68.1295 64.2531 67.7785 65.9777C67.4275 67.7024 66.9848 68.9175 66.4505 69.623C65.1621 69.9553 63.615 70.2004 61.8094 70.3584C59.4746 70.5627 57.0287 70.5728 54.4717 70.3887C51.9458 70.2019 49.5592 69.8146 47.3119 69.227L47.0521 73.2493C46.8719 75.4923 46.7357 77.7001 46.6434 79.8727L76.0513 75.5588C76.5563 75.9538 77.0217 76.7914 77.4475 78.0717C77.9043 79.3492 78.2008 80.7663 78.337 82.3228C78.5549 84.8133 78.2474 87.0361 77.4146 88.9911C76.5819 90.9461 75.3854 92.5095 73.8254 93.6811C72.2937 94.819 70.5939 95.4696 68.7261 95.633C66.8582 95.7964 64.2701 95.615 60.9616 95.0889C57.6816 94.5289 54.4617 93.7597 51.3019 92.7814C48.1732 91.8003 45.8425 90.7965 44.3097 89.77C43.0955 92.3857 41.6896 94.4223 40.0917 95.8796C38.5251 97.3342 36.4112 98.272 33.7503 98.693C32.3926 98.5922 31.103 98.0149 29.8815 96.9611C28.66 95.9073 27.6434 94.5062 26.8317 92.7578C26.02 91.0094 25.5215 89.0767 25.3363 86.9598Z" stroke="#0C0000" stroke-width="40" mask="url(#path-1-outside-1_18_21)"/>
</svg>
