<svg width="45" height="64" viewBox="0 0 45 64" fill="none" xmlns="http://www.w3.org/2000/svg">
<path d="M9.84124 60.1059L8.2671 59.9959C4.51499 59.7335 2.8208 55.1723 5.49184 52.5241C7.16809 50.8622 7.22394 48.1703 5.61805 46.4403L4.58727 45.3299C2.13965 42.6932 2.57871 38.5033 5.51976 36.4313L6.7842 35.5404C8.57681 34.2775 9.70597 32.275 9.85893 30.0875L10.0443 27.437C10.1793 25.5057 9.13146 23.6848 7.3937 22.8312C4.4562 21.3883 3.81652 17.4804 6.14064 15.1762L10.7261 10.6301C11.079 10.2802 11.4035 9.90282 11.6964 9.50147L13.7222 6.72605C18.143 0.669496 27.5862 2.29059 29.734 9.47476C30.1204 10.767 30.7901 11.9568 31.6945 12.9575L39.8243 21.9527C42.1539 24.5303 41.9769 28.5021 39.4273 30.8622L38.7127 31.5237C36.4818 33.5888 32.9862 33.4049 30.9844 31.117L29.3629 29.2638C26.8021 26.3372 21.9814 27.9589 21.7101 31.8382C21.6004 33.4079 22.3424 34.9155 23.6533 35.7859L29.5971 39.7328C32.0245 41.3447 32.542 44.6938 30.7145 46.9632C28.9815 49.115 25.82 49.4301 23.6937 47.6657C20.5838 45.0851 15.8533 47.1021 15.5714 51.1334L15.2743 55.3831C15.0781 58.1875 12.6457 60.302 9.84124 60.1059Z" fill="#420A0A" stroke="#0BC750" stroke-width="6"/>
</svg>
